<svg width="163" height="33" viewBox="0 0 163 33" fill="none" xmlns="http://www.w3.org/2000/svg">
    <symbol width="163" height="33" viewBox="0 0 163 33" id="logo">
        <path fill-rule="evenodd" clip-rule="evenodd" d="M21.8646 18.8219C21.7849 18.8219 21.706 18.8376 21.6323 18.8681C21.5587 18.8986 21.4918 18.9433 21.4354 18.9997C21.3791 19.056 21.3344 19.1229 21.3039 19.1966C21.2734 19.2702 21.2577 19.3491 21.2577 19.4289C21.2577 19.5086 21.2734 19.5875 21.3039 19.6611C21.3344 19.7348 21.3791 19.8017 21.4354 19.858C21.4918 19.9144 21.5587 19.9591 21.6323 19.9896C21.706 20.0201 21.7849 20.0358 21.8646 20.0358C22.0256 20.0358 22.1799 19.9719 22.2938 19.858C22.4076 19.7442 22.4715 19.5898 22.4715 19.4289C22.4715 19.2679 22.4076 19.1135 22.2938 18.9997C22.1799 18.8859 22.0256 18.8219 21.8646 18.8219ZM8.49199 18.8219C8.41228 18.8219 8.33336 18.8376 8.25972 18.8681C8.18608 18.8986 8.11917 18.9433 8.06281 18.9997C8.00645 19.056 7.96174 19.1229 7.93124 19.1966C7.90074 19.2702 7.88504 19.3491 7.88504 19.4289C7.88504 19.5086 7.90074 19.5875 7.93124 19.6611C7.96174 19.7348 8.00645 19.8017 8.06281 19.858C8.11917 19.9144 8.18608 19.9591 8.25972 19.9896C8.33336 20.0201 8.41228 20.0358 8.49199 20.0358C8.65296 20.0358 8.80734 19.9719 8.92116 19.858C9.03499 19.7442 9.09893 19.5898 9.09893 19.4289C9.09893 19.2679 9.03499 19.1135 8.92116 18.9997C8.80734 18.8859 8.65296 18.8219 8.49199 18.8219ZM25.413 18.2146C24.2489 18.2146 23.2953 19.1755 23.2953 20.3397C23.2953 20.877 23.4989 21.3717 23.8315 21.7463C22.8935 22.3901 22.2889 23.5834 22.2889 24.8933H22.2909C22.2909 25.2286 22.5625 25.5002 22.8978 25.5002H27.9278C28.2636 25.5002 28.5352 25.2282 28.5352 24.8933C28.5352 23.5834 27.9309 22.3901 26.9929 21.7467C27.3375 21.3589 27.5281 20.8584 27.5288 20.3397C27.5288 19.1755 26.5756 18.2146 25.4111 18.2146H25.413ZM12.4387 18.2146C11.2745 18.2146 10.321 19.1755 10.321 20.3397C10.321 20.877 10.5246 21.3717 10.8572 21.7463C9.9192 22.3901 9.31653 23.5834 9.31653 24.8933C9.31653 25.2286 9.58853 25.5002 9.92347 25.5002H14.9535C15.2877 25.5002 15.5608 25.2282 15.5608 24.8933C15.5608 23.5834 14.9566 22.3901 14.0186 21.7467C14.3632 21.3589 14.5538 20.8584 14.5544 20.3397C14.5544 19.1755 13.6024 18.2146 12.4387 18.2146ZM25.413 7.28606C24.2489 7.28606 23.2953 8.247 23.2953 9.41115C23.2953 9.94854 23.4989 10.4432 23.8315 10.8178C22.8935 11.4616 22.2889 12.6549 22.2889 13.9648H22.2909C22.2909 14.3001 22.5625 14.5717 22.8978 14.5717H27.9278C28.2636 14.5717 28.5352 14.2997 28.5352 13.9648C28.5352 12.6549 27.9309 11.4616 26.9929 10.8182C27.3375 10.4304 27.5281 9.92988 27.5288 9.41115C27.5288 8.247 26.5756 7.28606 25.4111 7.28606H25.413ZM22.074 7.28606C21.9131 7.28606 21.7587 7.35001 21.6449 7.46383C21.531 7.57766 21.4671 7.73204 21.4671 7.89301C21.4671 8.05398 21.531 8.20836 21.6449 8.32218C21.7587 8.43601 21.9131 8.49995 22.074 8.49995C22.235 8.49995 22.3894 8.43601 22.5032 8.32218C22.617 8.20836 22.681 8.05398 22.681 7.89301C22.681 7.73204 22.617 7.57766 22.5032 7.46383C22.3894 7.35001 22.235 7.28606 22.074 7.28606ZM12.4387 7.28606C11.2745 7.28606 10.321 8.247 10.321 9.41115C10.321 9.94854 10.5246 10.4432 10.8572 10.8178C9.9192 11.4616 9.31653 12.6549 9.31653 13.9648C9.31653 14.3001 9.58853 14.5717 9.92347 14.5717H14.9535C15.2877 14.5717 15.5608 14.2997 15.5608 13.9648C15.5608 12.6549 14.9566 11.4616 14.0186 10.8182C14.3632 10.4304 14.5538 9.92988 14.5544 9.41115C14.5544 8.247 13.6024 7.28606 12.4387 7.28606ZM8.49199 7.28606C8.33101 7.28606 8.17664 7.35001 8.06281 7.46383C7.94899 7.57766 7.88504 7.73204 7.88504 7.89301C7.88504 8.05398 7.94899 8.20836 8.06281 8.32218C8.17664 8.43601 8.33101 8.49995 8.49199 8.49995C8.65296 8.49995 8.80734 8.43601 8.92116 8.32218C9.03499 8.20836 9.09893 8.05398 9.09893 7.89301C9.09893 7.73204 9.03499 7.57766 8.92116 7.46383C8.80734 7.35001 8.65296 7.28606 8.49199 7.28606Z"  />
        <path fill-rule="evenodd" clip-rule="evenodd" d="M18.214 6.07178C17.8787 6.07178 17.6067 6.34378 17.6067 6.67912V16.0899H8.19668C8.03565 16.0899 7.88123 16.1538 7.76737 16.2677C7.6535 16.3816 7.58954 16.536 7.58954 16.697C7.58954 16.858 7.6535 17.0125 7.76737 17.1263C7.88123 17.2402 8.03565 17.3042 8.19668 17.3042H17.6074V26.7145C17.6077 26.8345 17.6434 26.9518 17.7102 27.0515C17.7769 27.1513 17.8717 27.229 17.9826 27.2749C18.0935 27.3208 18.2155 27.3329 18.3332 27.3096C18.4509 27.2863 18.5591 27.2286 18.6441 27.1439C18.758 27.03 18.8217 26.8754 18.8217 26.7145V17.3034H28.2325C28.3525 17.3032 28.4697 17.2674 28.5695 17.2006C28.6692 17.1339 28.7469 17.0391 28.7928 16.9282C28.8388 16.8173 28.8508 16.6953 28.8275 16.5776C28.8042 16.4599 28.7466 16.3517 28.6618 16.2667C28.5479 16.1529 28.3935 16.0891 28.2325 16.0891H18.8213V6.67873C18.8211 6.51782 18.7571 6.36356 18.6433 6.24978C18.5295 6.136 18.3749 6.07199 18.214 6.07178Z"  />
        <path fill-rule="evenodd" clip-rule="evenodd" d="M4.85692 0.000388726C3.8583 0.000388726 3.03531 0.82299 3.03531 1.822V26.1076C3.03545 26.2277 3.07117 26.345 3.13795 26.4448C3.20474 26.5446 3.2996 26.6224 3.41056 26.6684C3.52152 26.7143 3.6436 26.7263 3.7614 26.703C3.87919 26.6796 3.98741 26.6218 4.0724 26.5369C4.18625 26.4231 4.24998 26.2684 4.24998 26.1076V4.85673H32.7857V27.3211C32.7857 27.6638 32.5215 27.928 32.1784 27.928H2.42875C2.26773 27.928 2.1133 27.992 1.99944 28.1059C1.88558 28.2197 1.82161 28.3741 1.82161 28.5352C1.82161 28.6962 1.88558 28.8506 1.99944 28.9645C2.1133 29.0783 2.26773 29.1423 2.42875 29.1423H32.1784C33.177 29.1423 34 28.3197 34 27.3211V1.82161C34 0.82299 33.177 0 32.1784 0L4.85692 0.000388726ZM26.107 1.822C26.1867 1.822 26.2656 1.8377 26.3393 1.8682C26.4129 1.8987 26.4798 1.94341 26.5362 1.99977C26.5925 2.05613 26.6372 2.12304 26.6677 2.19668C26.6982 2.27032 26.7139 2.34924 26.7139 2.42895C26.7139 2.50865 26.6982 2.58758 26.6677 2.66121C26.6372 2.73485 26.5925 2.80176 26.5362 2.85812C26.4798 2.91448 26.4129 2.95919 26.3393 2.98969C26.2656 3.02019 26.1867 3.03589 26.107 3.03589C25.946 3.03589 25.7915 2.97193 25.6777 2.85806C25.5638 2.7442 25.4999 2.58978 25.4999 2.42875C25.4999 2.26773 25.5638 2.1133 25.6777 1.99944C25.7915 1.88558 25.946 1.822 26.107 1.822ZM28.5356 1.822C28.6153 1.822 28.6942 1.8377 28.7678 1.8682C28.8415 1.8987 28.9084 1.94341 28.9647 1.99977C29.0211 2.05613 29.0658 2.12304 29.0963 2.19668C29.1268 2.27032 29.1425 2.34924 29.1425 2.42895C29.1425 2.50865 29.1268 2.58758 29.0963 2.66121C29.0658 2.73485 29.0211 2.80176 28.9647 2.85812C28.9084 2.91448 28.8415 2.95919 28.7678 2.98969C28.6942 3.02019 28.6153 3.03589 28.5356 3.03589C28.3745 3.03589 28.2201 2.97193 28.1062 2.85806C27.9924 2.7442 27.9284 2.58978 27.9284 2.42875C27.9284 2.26773 27.9924 2.1133 28.1062 1.99944C28.2201 1.88558 28.3745 1.822 28.5356 1.822ZM30.9641 1.822C31.0438 1.822 31.1227 1.8377 31.1964 1.8682C31.27 1.8987 31.3369 1.94341 31.3933 1.99977C31.4496 2.05613 31.4944 2.12304 31.5249 2.19668C31.5554 2.27032 31.5711 2.34924 31.5711 2.42895C31.5711 2.50865 31.5554 2.58758 31.5249 2.66121C31.4944 2.73485 31.4496 2.80176 31.3933 2.85812C31.3369 2.91448 31.27 2.95919 31.1964 2.98969C31.1227 3.02019 31.0438 3.03589 30.9641 3.03589C30.8031 3.03589 30.6487 2.97193 30.5348 2.85806C30.4209 2.7442 30.357 2.58978 30.357 2.42875C30.357 2.26773 30.4209 2.1133 30.5348 1.99944C30.6487 1.88558 30.8031 1.822 30.9641 1.822ZM0.607139 27.9288C0.446168 27.9288 0.291768 27.9926 0.177907 28.1064C0.0640467 28.2202 5.15586e-05 28.3746 3.11406e-08 28.5356C-5.14963e-05 28.6965 0.0638447 28.8509 0.177633 28.9648C0.29142 29.0786 0.445779 29.1426 0.606751 29.1427C0.767723 29.1427 0.922102 29.0787 1.03593 28.9649C1.14975 28.8511 1.2137 28.6967 1.2137 28.5357C1.2137 28.3748 1.14975 28.2204 1.03593 28.1066C0.922102 27.9927 0.767723 27.9288 0.606751 27.9288H0.607139Z"  />
        <path d="M44.9917 6.86133C45.0894 6.51139 45.3335 6.33236 45.7241 6.32422H48.0679C48.1167 6.32422 48.1696 6.32829 48.2266 6.33643C48.4707 6.37712 48.6131 6.56022 48.6538 6.88574C48.9468 10.0596 49.0404 12.8794 48.9346 15.3452L53.9028 6.78809C53.9191 6.76367 53.9354 6.73519 53.9517 6.70264C54.1226 6.45036 54.3504 6.32422 54.6353 6.32422H56.979C57.0848 6.32422 57.1784 6.34863 57.2598 6.39746C57.4714 6.53581 57.5405 6.76367 57.4673 7.08105L53.2925 23.4629C53.1948 23.8128 52.9507 23.9919 52.5601 24H50.4849C50.3791 24 50.2855 23.9756 50.2041 23.9268C49.9925 23.7884 49.9233 23.5605 49.9966 23.2432L51.8887 15.8091L50.2896 18.458C50.2814 18.4743 50.2692 18.4946 50.2529 18.519C49.8216 19.2271 49.313 19.5811 48.7271 19.5811L47.1157 19.4102C46.5623 19.3369 46.3019 19.0114 46.3345 18.4336C46.4077 17.3105 46.4199 16.0288 46.3711 14.5884L44.1128 23.4629C44.0151 23.8128 43.771 23.9919 43.3804 24H41.3052C41.1994 24 41.1058 23.9756 41.0244 23.9268C40.8128 23.7884 40.7437 23.5605 40.8169 23.2432L44.9917 6.86133ZM62.4722 12.9648H66.6348C67.0824 12.973 67.2533 13.2334 67.1475 13.7461L66.8545 15.1865C66.8301 15.2842 66.7894 15.3818 66.7324 15.4795C66.5534 15.7399 66.3337 15.8701 66.0732 15.8701H61.7397L60.397 21.0947H65.0723C65.5524 21.1029 65.7396 21.3633 65.6338 21.876L65.3164 23.3164C65.292 23.4141 65.2472 23.5117 65.1821 23.6094C64.995 23.8698 64.763 24 64.4863 24H56.9912C56.8854 24 56.7878 23.9756 56.6982 23.9268C56.4867 23.7884 56.4215 23.5605 56.5029 23.2432L60.0796 9.22949H59.2129C59.1478 9.22949 59.0868 9.22542 59.0298 9.21729C58.7043 9.16032 58.6107 8.87142 58.749 8.35059L59.1396 6.8125C59.1722 6.66602 59.2088 6.54801 59.2495 6.4585C59.2983 6.36898 59.4245 6.32422 59.6279 6.32422H68.6855C69.1657 6.33236 69.3529 6.59277 69.2471 7.10547L68.9297 8.5459C68.9053 8.64355 68.8605 8.74121 68.7954 8.83887C68.6082 9.09928 68.3763 9.22949 68.0996 9.22949H63.4243L62.4722 12.9648ZM73.605 12.9648H77.7676C78.2152 12.973 78.3861 13.2334 78.2803 13.7461L77.9873 15.1865C77.9629 15.2842 77.9222 15.3818 77.8652 15.4795C77.6862 15.7399 77.4665 15.8701 77.2061 15.8701H72.8726L71.5298 21.0947H76.2051C76.6852 21.1029 76.8724 21.3633 76.7666 21.876L76.4492 23.3164C76.4248 23.4141 76.38 23.5117 76.3149 23.6094C76.1278 23.8698 75.8958 24 75.6191 24H68.124C68.0182 24 67.9206 23.9756 67.8311 23.9268C67.6195 23.7884 67.5544 23.5605 67.6357 23.2432L71.2124 9.22949H70.3457C70.2806 9.22949 70.2196 9.22542 70.1626 9.21729C69.8371 9.16032 69.7435 8.87142 69.8818 8.35059L70.2725 6.8125C70.305 6.66602 70.3416 6.54801 70.3823 6.4585C70.4312 6.36898 70.5573 6.32422 70.7607 6.32422H79.8184C80.2985 6.33236 80.4857 6.59277 80.3799 7.10547L80.0625 8.5459C80.0381 8.64355 79.9933 8.74121 79.9282 8.83887C79.741 9.09928 79.5091 9.22949 79.2324 9.22949H74.5571L73.605 12.9648ZM91.8789 6.32422C92.359 6.32422 92.5462 6.58464 92.4404 7.10547L92.123 8.5459C92.0986 8.64355 92.0539 8.74121 91.9888 8.83887C91.8016 9.09928 91.5697 9.22949 91.293 9.22949H87.7896L84.1641 23.4629C84.0664 23.8128 83.8223 23.9919 83.4316 24H81.332C81.1855 24 81.0553 23.943 80.9414 23.8291C80.8275 23.7152 80.7949 23.5605 80.8438 23.3652L84.4448 9.22949H80.7217C80.6647 9.22949 80.6037 9.22542 80.5386 9.21729C80.2212 9.16032 80.1276 8.87142 80.2578 8.35059L80.6484 6.8125C80.681 6.69043 80.7176 6.59277 80.7583 6.51953C80.8478 6.38932 81.0553 6.32422 81.3809 6.32422H91.8789ZM95.2358 16.334H97.8848L98.312 10.0596L95.2358 16.334ZM93.8076 19.2393L91.708 23.5361C91.5208 23.8942 91.2116 24.057 90.7803 24.0244L88.876 23.9512C88.8678 23.9512 88.8516 23.9512 88.8271 23.9512C88.3063 23.9105 88.1436 23.6094 88.3389 23.0479L96.4932 7.34961C96.5501 7.23568 96.6193 7.12174 96.7007 7.00781C97.0181 6.58464 97.3965 6.37305 97.8359 6.37305L100.644 6.34863C100.798 6.34049 100.941 6.36491 101.071 6.42188C101.445 6.59277 101.62 6.95898 101.596 7.52051L100.692 23.4629C100.644 23.8047 100.399 23.9837 99.96 24H97.9824C97.9255 24 97.8685 23.9959 97.8115 23.9878C97.5023 23.9227 97.3721 23.707 97.4209 23.3408L97.6895 19.2393H93.8076ZM106.234 6.86133C106.332 6.51139 106.576 6.33236 106.967 6.32422H108.981C109.144 6.32422 109.294 6.38118 109.433 6.49512C109.465 6.51953 109.498 6.55208 109.53 6.59277C109.571 6.64974 109.628 6.8125 109.701 7.08105L111.825 16.4316L114.267 6.86133C114.364 6.51139 114.608 6.33236 114.999 6.32422H117.074C117.172 6.32422 117.265 6.34863 117.355 6.39746C117.575 6.53581 117.644 6.76367 117.562 7.08105L113.388 23.4629C113.29 23.8128 113.046 23.9919 112.655 24H110.58C110.409 24 110.287 23.9512 110.214 23.8535C110.149 23.7559 110.1 23.6419 110.067 23.5117L107.846 13.6851L105.355 23.4629C105.258 23.8128 105.014 23.9919 104.623 24H102.548C102.45 24 102.357 23.9756 102.267 23.9268C102.047 23.7884 101.978 23.5605 102.06 23.2432L106.234 6.86133ZM122.262 16.334H124.911L125.338 10.0596L122.262 16.334ZM120.834 19.2393L118.734 23.5361C118.547 23.8942 118.238 24.057 117.807 24.0244L115.902 23.9512C115.894 23.9512 115.878 23.9512 115.854 23.9512C115.333 23.9105 115.17 23.6094 115.365 23.0479L123.52 7.34961C123.576 7.23568 123.646 7.12174 123.727 7.00781C124.044 6.58464 124.423 6.37305 124.862 6.37305L127.67 6.34863C127.825 6.34049 127.967 6.36491 128.097 6.42188C128.472 6.59277 128.646 6.95898 128.622 7.52051L127.719 23.4629C127.67 23.8047 127.426 23.9837 126.986 24H125.009C124.952 24 124.895 23.9959 124.838 23.9878C124.529 23.9227 124.398 23.707 124.447 23.3408L124.716 19.2393H120.834ZM142.196 6.32422C142.676 6.32422 142.864 6.58464 142.758 7.10547L142.44 8.5459C142.416 8.64355 142.371 8.74121 142.306 8.83887C142.119 9.09928 141.887 9.22949 141.61 9.22949H138.107L134.481 23.4629C134.384 23.8128 134.14 23.9919 133.749 24H131.649C131.503 24 131.373 23.943 131.259 23.8291C131.145 23.7152 131.112 23.5605 131.161 23.3652L134.762 9.22949H131.039C130.982 9.22949 130.921 9.22542 130.856 9.21729C130.539 9.16032 130.445 8.87142 130.575 8.35059L130.966 6.8125C130.998 6.69043 131.035 6.59277 131.076 6.51953C131.165 6.38932 131.373 6.32422 131.698 6.32422H142.196ZM144.223 14.8203C143.734 16.6758 143.49 18.1854 143.49 19.3491C143.49 20.5942 143.767 21.2168 144.32 21.2168C144.442 21.2168 144.564 21.2005 144.687 21.168C145.036 21.054 145.411 20.6634 145.81 19.9961C146.314 19.1172 146.819 17.6768 147.323 15.6748C147.836 13.5833 148.092 12.0127 148.092 10.9629C148.092 9.91309 147.836 9.38411 147.323 9.37598C146.737 9.37598 146.233 9.72591 145.81 10.4258C145.297 11.2721 144.768 12.737 144.223 14.8203ZM140.756 14.0391C141.309 11.8988 142.095 10.1287 143.112 8.729C144.381 6.99561 145.801 6.12891 147.372 6.12891C147.445 6.12891 147.519 6.12891 147.592 6.12891C148.902 6.20215 149.87 6.60905 150.497 7.34961C151.116 8.08203 151.425 9.32715 151.425 11.085C151.425 12.5417 151.148 14.3646 150.595 16.5537C150.196 18.1325 149.687 19.4956 149.069 20.6431C147.807 22.9624 146.233 24.1221 144.345 24.1221C143.051 24.1221 142.062 23.7925 141.378 23.1333C140.524 22.2869 140.097 20.7855 140.097 18.6289C140.097 17.278 140.316 15.748 140.756 14.0391ZM156.454 14.4175L157.37 14.2832C157.606 14.2507 157.74 14.2262 157.772 14.21C158.44 13.9821 158.879 13.7013 159.091 13.3677C159.294 13.0259 159.429 12.7329 159.494 12.4888C159.787 11.3983 159.933 10.499 159.933 9.79102C159.933 9.66081 159.868 9.54281 159.738 9.43701C159.624 9.33936 159.486 9.27425 159.323 9.2417C159.225 9.22542 158.952 9.21322 158.505 9.20508C158.285 9.20508 158.045 9.20508 157.785 9.20508L156.454 14.4175ZM154.44 9.18066H153.61C153.496 9.18066 153.39 9.15218 153.292 9.09521C153.081 8.96501 153.016 8.76562 153.097 8.49707L153.537 6.8125C153.553 6.7474 153.581 6.68229 153.622 6.61719C153.752 6.42188 153.911 6.32422 154.098 6.32422H159.298C159.998 6.32422 160.621 6.43001 161.166 6.6416C162.395 7.12988 163.009 8.08203 163.009 9.49805C163.009 10.4665 162.818 11.5163 162.436 12.6475C162.021 13.8763 161.561 14.7145 161.056 15.1621C160.511 15.6992 159.986 16.098 159.481 16.3584L160.47 22.9746C160.486 23.1048 160.495 23.2269 160.495 23.3408C160.47 23.7803 160.242 24 159.811 24H157.882C157.801 24 157.72 23.9837 157.638 23.9512C157.296 23.7965 157.085 23.4059 157.003 22.7793L156.271 16.8833H155.819L154.147 23.4629C154.049 23.8128 153.805 23.9919 153.415 24H151.339C151.234 24 151.14 23.9756 151.059 23.9268C150.847 23.7884 150.778 23.5605 150.851 23.2432L154.44 9.18066Z"  />
    </symbol>
</svg>
